<mxfile host="65bd71144e" pages="2">
    <diagram id="iUEbj8dNVu1VvXC6DNIW" name="UML">
        <mxGraphModel dx="435" dy="451" grid="1" gridSize="10" guides="1" tooltips="1" connect="1" arrows="1" fold="1" page="1" pageScale="1" pageWidth="827" pageHeight="1169" math="0" shadow="0">
            <root>
                <mxCell id="0"/>
                <mxCell id="1" parent="0"/>
                <mxCell id="e080HOzBAcm6F7jt0b6_-1" value="User" style="swimlane;fontStyle=0;childLayout=stackLayout;horizontal=1;startSize=26;fillColor=none;horizontalStack=0;resizeParent=1;resizeParentMax=0;resizeLast=0;collapsible=1;marginBottom=0;" parent="1" vertex="1">
                    <mxGeometry x="590" y="130" width="140" height="104" as="geometry"/>
                </mxCell>
                <mxCell id="e080HOzBAcm6F7jt0b6_-2" value="username: str (uniq)" style="text;strokeColor=none;fillColor=none;align=left;verticalAlign=top;spacingLeft=4;spacingRight=4;overflow=hidden;rotatable=0;points=[[0,0.5],[1,0.5]];portConstraint=eastwest;" parent="e080HOzBAcm6F7jt0b6_-1" vertex="1">
                    <mxGeometry y="26" width="140" height="26" as="geometry"/>
                </mxCell>
                <mxCell id="e080HOzBAcm6F7jt0b6_-3" value="email: str" style="text;strokeColor=none;fillColor=none;align=left;verticalAlign=top;spacingLeft=4;spacingRight=4;overflow=hidden;rotatable=0;points=[[0,0.5],[1,0.5]];portConstraint=eastwest;" parent="e080HOzBAcm6F7jt0b6_-1" vertex="1">
                    <mxGeometry y="52" width="140" height="26" as="geometry"/>
                </mxCell>
                <mxCell id="e080HOzBAcm6F7jt0b6_-4" value="password: str (hash)" style="text;strokeColor=none;fillColor=none;align=left;verticalAlign=top;spacingLeft=4;spacingRight=4;overflow=hidden;rotatable=0;points=[[0,0.5],[1,0.5]];portConstraint=eastwest;" parent="e080HOzBAcm6F7jt0b6_-1" vertex="1">
                    <mxGeometry y="78" width="140" height="26" as="geometry"/>
                </mxCell>
                <mxCell id="e080HOzBAcm6F7jt0b6_-13" value="Profile" style="swimlane;fontStyle=0;childLayout=stackLayout;horizontal=1;startSize=26;fillColor=none;horizontalStack=0;resizeParent=1;resizeParentMax=0;resizeLast=0;collapsible=1;marginBottom=0;" parent="1" vertex="1">
                    <mxGeometry x="345" y="287" width="140" height="182" as="geometry"/>
                </mxCell>
                <mxCell id="hX1yJxV7n2xUwgyLYWJZ-1" value="*id: int" style="text;strokeColor=none;fillColor=none;align=left;verticalAlign=top;spacingLeft=4;spacingRight=4;overflow=hidden;rotatable=0;points=[[0,0.5],[1,0.5]];portConstraint=eastwest;" parent="e080HOzBAcm6F7jt0b6_-13" vertex="1">
                    <mxGeometry y="26" width="140" height="26" as="geometry"/>
                </mxCell>
                <mxCell id="e080HOzBAcm6F7jt0b6_-20" value="user: User (uniq, null)" style="text;strokeColor=none;fillColor=none;align=left;verticalAlign=top;spacingLeft=4;spacingRight=4;overflow=hidden;rotatable=0;points=[[0,0.5],[1,0.5]];portConstraint=eastwest;" parent="e080HOzBAcm6F7jt0b6_-13" vertex="1">
                    <mxGeometry y="52" width="140" height="26" as="geometry"/>
                </mxCell>
                <mxCell id="e080HOzBAcm6F7jt0b6_-56" value="school: School (null)" style="text;strokeColor=none;fillColor=none;align=left;verticalAlign=top;spacingLeft=4;spacingRight=4;overflow=hidden;rotatable=0;points=[[0,0.5],[1,0.5]];portConstraint=eastwest;" parent="e080HOzBAcm6F7jt0b6_-13" vertex="1">
                    <mxGeometry y="78" width="140" height="26" as="geometry"/>
                </mxCell>
                <mxCell id="e080HOzBAcm6F7jt0b6_-5" value="first_name: str" style="text;strokeColor=none;fillColor=none;align=left;verticalAlign=top;spacingLeft=4;spacingRight=4;overflow=hidden;rotatable=0;points=[[0,0.5],[1,0.5]];portConstraint=eastwest;" parent="e080HOzBAcm6F7jt0b6_-13" vertex="1">
                    <mxGeometry y="104" width="140" height="26" as="geometry"/>
                </mxCell>
                <mxCell id="e080HOzBAcm6F7jt0b6_-6" value="last_name: str" style="text;strokeColor=none;fillColor=none;align=left;verticalAlign=top;spacingLeft=4;spacingRight=4;overflow=hidden;rotatable=0;points=[[0,0.5],[1,0.5]];portConstraint=eastwest;" parent="e080HOzBAcm6F7jt0b6_-13" vertex="1">
                    <mxGeometry y="130" width="140" height="26" as="geometry"/>
                </mxCell>
                <mxCell id="zUVDc7OHqMcMPTlxPV3x-3" value="create_date: datetime" style="text;strokeColor=none;fillColor=none;align=left;verticalAlign=top;spacingLeft=4;spacingRight=4;overflow=hidden;rotatable=0;points=[[0,0.5],[1,0.5]];portConstraint=eastwest;" parent="e080HOzBAcm6F7jt0b6_-13" vertex="1">
                    <mxGeometry y="156" width="140" height="26" as="geometry"/>
                </mxCell>
                <mxCell id="e080HOzBAcm6F7jt0b6_-28" value="School" style="swimlane;fontStyle=0;childLayout=stackLayout;horizontal=1;startSize=26;fillColor=none;horizontalStack=0;resizeParent=1;resizeParentMax=0;resizeLast=0;collapsible=1;marginBottom=0;" parent="1" vertex="1">
                    <mxGeometry x="810" y="290.97" width="140" height="178" as="geometry"/>
                </mxCell>
                <mxCell id="hX1yJxV7n2xUwgyLYWJZ-2" value="*id: int" style="text;strokeColor=none;fillColor=none;align=left;verticalAlign=top;spacingLeft=4;spacingRight=4;overflow=hidden;rotatable=0;points=[[0,0.5],[1,0.5]];portConstraint=eastwest;" parent="e080HOzBAcm6F7jt0b6_-28" vertex="1">
                    <mxGeometry y="26" width="140" height="22" as="geometry"/>
                </mxCell>
                <mxCell id="e080HOzBAcm6F7jt0b6_-34" value="user: User (uniq, null)" style="text;strokeColor=none;fillColor=none;align=left;verticalAlign=top;spacingLeft=4;spacingRight=4;overflow=hidden;rotatable=0;points=[[0,0.5],[1,0.5]];portConstraint=eastwest;" parent="e080HOzBAcm6F7jt0b6_-28" vertex="1">
                    <mxGeometry y="48" width="140" height="26" as="geometry"/>
                </mxCell>
                <mxCell id="e080HOzBAcm6F7jt0b6_-29" value="title: str" style="text;strokeColor=none;fillColor=none;align=left;verticalAlign=top;spacingLeft=4;spacingRight=4;overflow=hidden;rotatable=0;points=[[0,0.5],[1,0.5]];portConstraint=eastwest;" parent="e080HOzBAcm6F7jt0b6_-28" vertex="1">
                    <mxGeometry y="74" width="140" height="26" as="geometry"/>
                </mxCell>
                <mxCell id="IFrO22kwMoxjrA62lldN-2" value="city: str" style="text;strokeColor=none;fillColor=none;align=left;verticalAlign=top;spacingLeft=4;spacingRight=4;overflow=hidden;rotatable=0;points=[[0,0.5],[1,0.5]];portConstraint=eastwest;" parent="e080HOzBAcm6F7jt0b6_-28" vertex="1">
                    <mxGeometry y="100" width="140" height="26" as="geometry"/>
                </mxCell>
                <mxCell id="e080HOzBAcm6F7jt0b6_-30" value="address: str" style="text;strokeColor=none;fillColor=none;align=left;verticalAlign=top;spacingLeft=4;spacingRight=4;overflow=hidden;rotatable=0;points=[[0,0.5],[1,0.5]];portConstraint=eastwest;" parent="e080HOzBAcm6F7jt0b6_-28" vertex="1">
                    <mxGeometry y="126" width="140" height="26" as="geometry"/>
                </mxCell>
                <mxCell id="zUVDc7OHqMcMPTlxPV3x-4" value="create_date: datetime" style="text;strokeColor=none;fillColor=none;align=left;verticalAlign=top;spacingLeft=4;spacingRight=4;overflow=hidden;rotatable=0;points=[[0,0.5],[1,0.5]];portConstraint=eastwest;" parent="e080HOzBAcm6F7jt0b6_-28" vertex="1">
                    <mxGeometry y="152" width="140" height="26" as="geometry"/>
                </mxCell>
                <mxCell id="e080HOzBAcm6F7jt0b6_-36" value="Competition" style="swimlane;fontStyle=0;childLayout=stackLayout;horizontal=1;startSize=26;fillColor=none;horizontalStack=0;resizeParent=1;resizeParentMax=0;resizeLast=0;collapsible=1;marginBottom=0;" parent="1" vertex="1">
                    <mxGeometry x="1009" y="319" width="140" height="126" as="geometry"/>
                </mxCell>
                <mxCell id="hX1yJxV7n2xUwgyLYWJZ-3" value="*id: int" style="text;strokeColor=none;fillColor=none;align=left;verticalAlign=top;spacingLeft=4;spacingRight=4;overflow=hidden;rotatable=0;points=[[0,0.5],[1,0.5]];portConstraint=eastwest;" parent="e080HOzBAcm6F7jt0b6_-36" vertex="1">
                    <mxGeometry y="26" width="140" height="22" as="geometry"/>
                </mxCell>
                <mxCell id="e080HOzBAcm6F7jt0b6_-37" value="school: School" style="text;strokeColor=none;fillColor=none;align=left;verticalAlign=top;spacingLeft=4;spacingRight=4;overflow=hidden;rotatable=0;points=[[0,0.5],[1,0.5]];portConstraint=eastwest;" parent="e080HOzBAcm6F7jt0b6_-36" vertex="1">
                    <mxGeometry y="48" width="140" height="26" as="geometry"/>
                </mxCell>
                <mxCell id="e080HOzBAcm6F7jt0b6_-38" value="title: str" style="text;strokeColor=none;fillColor=none;align=left;verticalAlign=top;spacingLeft=4;spacingRight=4;overflow=hidden;rotatable=0;points=[[0,0.5],[1,0.5]];portConstraint=eastwest;" parent="e080HOzBAcm6F7jt0b6_-36" vertex="1">
                    <mxGeometry y="74" width="140" height="26" as="geometry"/>
                </mxCell>
                <mxCell id="zUVDc7OHqMcMPTlxPV3x-5" value="create_date: datetime" style="text;strokeColor=none;fillColor=none;align=left;verticalAlign=top;spacingLeft=4;spacingRight=4;overflow=hidden;rotatable=0;points=[[0,0.5],[1,0.5]];portConstraint=eastwest;" parent="e080HOzBAcm6F7jt0b6_-36" vertex="1">
                    <mxGeometry y="100" width="140" height="26" as="geometry"/>
                </mxCell>
                <mxCell id="e080HOzBAcm6F7jt0b6_-42" value="Participant" style="swimlane;fontStyle=0;childLayout=stackLayout;horizontal=1;startSize=26;fillColor=none;horizontalStack=0;resizeParent=1;resizeParentMax=0;resizeLast=0;collapsible=1;marginBottom=0;" parent="1" vertex="1">
                    <mxGeometry x="1150" y="548.97" width="150" height="126" as="geometry"/>
                </mxCell>
                <mxCell id="hX1yJxV7n2xUwgyLYWJZ-5" value="*id: int" style="text;strokeColor=none;fillColor=none;align=left;verticalAlign=top;spacingLeft=4;spacingRight=4;overflow=hidden;rotatable=0;points=[[0,0.5],[1,0.5]];portConstraint=eastwest;" parent="e080HOzBAcm6F7jt0b6_-42" vertex="1">
                    <mxGeometry y="26" width="150" height="22" as="geometry"/>
                </mxCell>
                <mxCell id="e080HOzBAcm6F7jt0b6_-43" value="competition: Competition" style="text;strokeColor=none;fillColor=none;align=left;verticalAlign=top;spacingLeft=4;spacingRight=4;overflow=hidden;rotatable=0;points=[[0,0.5],[1,0.5]];portConstraint=eastwest;" parent="e080HOzBAcm6F7jt0b6_-42" vertex="1">
                    <mxGeometry y="48" width="150" height="26" as="geometry"/>
                </mxCell>
                <mxCell id="e080HOzBAcm6F7jt0b6_-80" value="flow: Flow" style="text;strokeColor=none;fillColor=none;align=left;verticalAlign=top;spacingLeft=4;spacingRight=4;overflow=hidden;rotatable=0;points=[[0,0.5],[1,0.5]];portConstraint=eastwest;" parent="e080HOzBAcm6F7jt0b6_-42" vertex="1">
                    <mxGeometry y="74" width="150" height="26" as="geometry"/>
                </mxCell>
                <mxCell id="e080HOzBAcm6F7jt0b6_-49" value="profile: Profile" style="text;strokeColor=none;fillColor=none;align=left;verticalAlign=top;spacingLeft=4;spacingRight=4;overflow=hidden;rotatable=0;points=[[0,0.5],[1,0.5]];portConstraint=eastwest;" parent="e080HOzBAcm6F7jt0b6_-42" vertex="1">
                    <mxGeometry y="100" width="150" height="26" as="geometry"/>
                </mxCell>
                <mxCell id="e080HOzBAcm6F7jt0b6_-51" style="edgeStyle=orthogonalEdgeStyle;rounded=0;orthogonalLoop=1;jettySize=auto;html=1;" parent="1" source="e080HOzBAcm6F7jt0b6_-43" target="e080HOzBAcm6F7jt0b6_-36" edge="1">
                    <mxGeometry relative="1" as="geometry"/>
                </mxCell>
                <mxCell id="e080HOzBAcm6F7jt0b6_-53" style="edgeStyle=orthogonalEdgeStyle;rounded=0;orthogonalLoop=1;jettySize=auto;html=1;" parent="1" source="e080HOzBAcm6F7jt0b6_-34" target="e080HOzBAcm6F7jt0b6_-1" edge="1">
                    <mxGeometry relative="1" as="geometry"/>
                </mxCell>
                <mxCell id="e080HOzBAcm6F7jt0b6_-54" style="edgeStyle=orthogonalEdgeStyle;rounded=0;orthogonalLoop=1;jettySize=auto;html=1;" parent="1" source="e080HOzBAcm6F7jt0b6_-20" target="e080HOzBAcm6F7jt0b6_-1" edge="1">
                    <mxGeometry relative="1" as="geometry"/>
                </mxCell>
                <mxCell id="e080HOzBAcm6F7jt0b6_-66" value="Flow" style="swimlane;fontStyle=0;childLayout=stackLayout;horizontal=1;startSize=26;fillColor=none;horizontalStack=0;resizeParent=1;resizeParentMax=0;resizeLast=0;collapsible=1;marginBottom=0;" parent="1" vertex="1">
                    <mxGeometry x="1250" y="321" width="200" height="74" as="geometry"/>
                </mxCell>
                <mxCell id="hX1yJxV7n2xUwgyLYWJZ-4" value="*id: int" style="text;strokeColor=none;fillColor=none;align=left;verticalAlign=top;spacingLeft=4;spacingRight=4;overflow=hidden;rotatable=0;points=[[0,0.5],[1,0.5]];portConstraint=eastwest;" parent="e080HOzBAcm6F7jt0b6_-66" vertex="1">
                    <mxGeometry y="26" width="200" height="22" as="geometry"/>
                </mxCell>
                <mxCell id="e080HOzBAcm6F7jt0b6_-67" value="competition: Competition" style="text;strokeColor=none;fillColor=none;align=left;verticalAlign=top;spacingLeft=4;spacingRight=4;overflow=hidden;rotatable=0;points=[[0,0.5],[1,0.5]];portConstraint=eastwest;" parent="e080HOzBAcm6F7jt0b6_-66" vertex="1">
                    <mxGeometry y="48" width="200" height="26" as="geometry"/>
                </mxCell>
                <mxCell id="e080HOzBAcm6F7jt0b6_-95" style="edgeStyle=orthogonalEdgeStyle;rounded=0;orthogonalLoop=1;jettySize=auto;html=1;" parent="1" source="e080HOzBAcm6F7jt0b6_-67" target="e080HOzBAcm6F7jt0b6_-36" edge="1">
                    <mxGeometry relative="1" as="geometry"/>
                </mxCell>
                <mxCell id="e080HOzBAcm6F7jt0b6_-145" value="Score" style="swimlane;fontStyle=0;childLayout=stackLayout;horizontal=1;startSize=26;fillColor=none;horizontalStack=0;resizeParent=1;resizeParentMax=0;resizeLast=0;collapsible=1;marginBottom=0;" parent="1" vertex="1">
                    <mxGeometry x="700" y="680" width="140" height="178" as="geometry"/>
                </mxCell>
                <mxCell id="hX1yJxV7n2xUwgyLYWJZ-6" value="*id: int" style="text;strokeColor=none;fillColor=none;align=left;verticalAlign=top;spacingLeft=4;spacingRight=4;overflow=hidden;rotatable=0;points=[[0,0.5],[1,0.5]];portConstraint=eastwest;" parent="e080HOzBAcm6F7jt0b6_-145" vertex="1">
                    <mxGeometry y="26" width="140" height="22" as="geometry"/>
                </mxCell>
                <mxCell id="jTrjmsbF7Hy-U88Tjvo7-1" value="competition: Competition" style="text;strokeColor=none;fillColor=none;align=left;verticalAlign=top;spacingLeft=4;spacingRight=4;overflow=hidden;rotatable=0;points=[[0,0.5],[1,0.5]];portConstraint=eastwest;" parent="e080HOzBAcm6F7jt0b6_-145" vertex="1">
                    <mxGeometry y="48" width="140" height="26" as="geometry"/>
                </mxCell>
                <mxCell id="e080HOzBAcm6F7jt0b6_-146" value="judge: Profile" style="text;strokeColor=none;fillColor=none;align=left;verticalAlign=top;spacingLeft=4;spacingRight=4;overflow=hidden;rotatable=0;points=[[0,0.5],[1,0.5]];portConstraint=eastwest;" parent="e080HOzBAcm6F7jt0b6_-145" vertex="1">
                    <mxGeometry y="74" width="140" height="26" as="geometry"/>
                </mxCell>
                <mxCell id="e080HOzBAcm6F7jt0b6_-147" value="participant: Participant" style="text;strokeColor=none;fillColor=none;align=left;verticalAlign=top;spacingLeft=4;spacingRight=4;overflow=hidden;rotatable=0;points=[[0,0.5],[1,0.5]];portConstraint=eastwest;" parent="e080HOzBAcm6F7jt0b6_-145" vertex="1">
                    <mxGeometry y="100" width="140" height="26" as="geometry"/>
                </mxCell>
                <mxCell id="e080HOzBAcm6F7jt0b6_-148" value="score: int" style="text;strokeColor=none;fillColor=none;align=left;verticalAlign=top;spacingLeft=4;spacingRight=4;overflow=hidden;rotatable=0;points=[[0,0.5],[1,0.5]];portConstraint=eastwest;" parent="e080HOzBAcm6F7jt0b6_-145" vertex="1">
                    <mxGeometry y="126" width="140" height="26" as="geometry"/>
                </mxCell>
                <mxCell id="IFrO22kwMoxjrA62lldN-1" value="create_date: datetime" style="text;strokeColor=none;fillColor=none;align=left;verticalAlign=top;spacingLeft=4;spacingRight=4;overflow=hidden;rotatable=0;points=[[0,0.5],[1,0.5]];portConstraint=eastwest;" parent="e080HOzBAcm6F7jt0b6_-145" vertex="1">
                    <mxGeometry y="152" width="140" height="26" as="geometry"/>
                </mxCell>
                <mxCell id="e080HOzBAcm6F7jt0b6_-162" style="edgeStyle=orthogonalEdgeStyle;rounded=0;orthogonalLoop=1;jettySize=auto;html=1;" parent="1" source="e080HOzBAcm6F7jt0b6_-147" target="e080HOzBAcm6F7jt0b6_-42" edge="1">
                    <mxGeometry relative="1" as="geometry"/>
                </mxCell>
                <mxCell id="e080HOzBAcm6F7jt0b6_-174" style="edgeStyle=orthogonalEdgeStyle;rounded=0;orthogonalLoop=1;jettySize=auto;html=1;" parent="1" source="e080HOzBAcm6F7jt0b6_-146" target="e080HOzBAcm6F7jt0b6_-13" edge="1">
                    <mxGeometry relative="1" as="geometry">
                        <mxPoint x="885.0588235294122" y="1115" as="targetPoint"/>
                    </mxGeometry>
                </mxCell>
                <mxCell id="U9G5cu5d0djngSI7oXee-97" style="edgeStyle=orthogonalEdgeStyle;rounded=0;orthogonalLoop=1;jettySize=auto;html=1;" parent="1" source="e080HOzBAcm6F7jt0b6_-80" target="e080HOzBAcm6F7jt0b6_-66" edge="1">
                    <mxGeometry relative="1" as="geometry"/>
                </mxCell>
                <mxCell id="u_q0TTr663Ak8V3AeobJ-12" style="edgeStyle=orthogonalEdgeStyle;rounded=0;orthogonalLoop=1;jettySize=auto;html=1;" parent="1" source="e080HOzBAcm6F7jt0b6_-49" target="e080HOzBAcm6F7jt0b6_-13" edge="1">
                    <mxGeometry relative="1" as="geometry"/>
                </mxCell>
                <mxCell id="zUVDc7OHqMcMPTlxPV3x-24" style="edgeStyle=orthogonalEdgeStyle;rounded=0;orthogonalLoop=1;jettySize=auto;html=1;" parent="1" source="e080HOzBAcm6F7jt0b6_-56" target="e080HOzBAcm6F7jt0b6_-28" edge="1">
                    <mxGeometry relative="1" as="geometry"/>
                </mxCell>
                <mxCell id="zUVDc7OHqMcMPTlxPV3x-25" style="edgeStyle=orthogonalEdgeStyle;rounded=0;orthogonalLoop=1;jettySize=auto;html=1;" parent="1" source="e080HOzBAcm6F7jt0b6_-37" target="e080HOzBAcm6F7jt0b6_-28" edge="1">
                    <mxGeometry relative="1" as="geometry"/>
                </mxCell>
                <mxCell id="jTrjmsbF7Hy-U88Tjvo7-2" style="edgeStyle=orthogonalEdgeStyle;rounded=0;orthogonalLoop=1;jettySize=auto;html=1;startArrow=none;startFill=0;endArrow=ERoneToMany;endFill=0;" parent="1" source="jTrjmsbF7Hy-U88Tjvo7-1" target="e080HOzBAcm6F7jt0b6_-36" edge="1">
                    <mxGeometry relative="1" as="geometry"/>
                </mxCell>
            </root>
        </mxGraphModel>
    </diagram>
    <diagram id="Nf7d6Wtd37Fq8LsDocSr" name="Чен">
        <mxGraphModel dx="761" dy="1959" grid="1" gridSize="10" guides="1" tooltips="1" connect="1" arrows="1" fold="1" page="1" pageScale="1" pageWidth="827" pageHeight="1169" math="0" shadow="0">
            <root>
                <mxCell id="VjDLeNoEt36ukDtSpz-p-0"/>
                <mxCell id="VjDLeNoEt36ukDtSpz-p-1" parent="VjDLeNoEt36ukDtSpz-p-0"/>
                <mxCell id="VjDLeNoEt36ukDtSpz-p-54" style="edgeStyle=orthogonalEdgeStyle;rounded=0;orthogonalLoop=1;jettySize=auto;html=1;entryX=0;entryY=0.5;entryDx=0;entryDy=0;" parent="VjDLeNoEt36ukDtSpz-p-1" source="VjDLeNoEt36ukDtSpz-p-50" target="VjDLeNoEt36ukDtSpz-p-51" edge="1">
                    <mxGeometry relative="1" as="geometry"/>
                </mxCell>
                <mxCell id="VjDLeNoEt36ukDtSpz-p-55" style="edgeStyle=orthogonalEdgeStyle;rounded=0;orthogonalLoop=1;jettySize=auto;html=1;" parent="VjDLeNoEt36ukDtSpz-p-1" source="VjDLeNoEt36ukDtSpz-p-50" target="VjDLeNoEt36ukDtSpz-p-53" edge="1">
                    <mxGeometry relative="1" as="geometry"/>
                </mxCell>
                <mxCell id="VjDLeNoEt36ukDtSpz-p-56" style="edgeStyle=orthogonalEdgeStyle;rounded=0;orthogonalLoop=1;jettySize=auto;html=1;entryX=0;entryY=0.5;entryDx=0;entryDy=0;" parent="VjDLeNoEt36ukDtSpz-p-1" source="VjDLeNoEt36ukDtSpz-p-50" target="VjDLeNoEt36ukDtSpz-p-52" edge="1">
                    <mxGeometry relative="1" as="geometry"/>
                </mxCell>
                <mxCell id="VjDLeNoEt36ukDtSpz-p-127" style="edgeStyle=orthogonalEdgeStyle;rounded=0;orthogonalLoop=1;jettySize=auto;html=1;endArrow=ERmandOne;endFill=0;startArrow=none;startFill=0;" parent="VjDLeNoEt36ukDtSpz-p-1" source="VjDLeNoEt36ukDtSpz-p-140" target="VjDLeNoEt36ukDtSpz-p-122" edge="1">
                    <mxGeometry relative="1" as="geometry"/>
                </mxCell>
                <mxCell id="VjDLeNoEt36ukDtSpz-p-128" style="edgeStyle=orthogonalEdgeStyle;rounded=0;orthogonalLoop=1;jettySize=auto;html=1;endArrow=ERmandOne;endFill=0;startArrow=none;startFill=0;" parent="VjDLeNoEt36ukDtSpz-p-1" source="VjDLeNoEt36ukDtSpz-p-145" target="VjDLeNoEt36ukDtSpz-p-121" edge="1">
                    <mxGeometry relative="1" as="geometry"/>
                </mxCell>
                <mxCell id="_Gq4VT02wDg7G9v6jnCs-8" style="edgeStyle=orthogonalEdgeStyle;rounded=0;orthogonalLoop=1;jettySize=auto;html=1;entryX=0;entryY=0.5;entryDx=0;entryDy=0;" parent="VjDLeNoEt36ukDtSpz-p-1" source="VjDLeNoEt36ukDtSpz-p-50" target="_Gq4VT02wDg7G9v6jnCs-1" edge="1">
                    <mxGeometry relative="1" as="geometry"/>
                </mxCell>
                <mxCell id="VjDLeNoEt36ukDtSpz-p-50" value="User" style="rounded=0;whiteSpace=wrap;html=1;" parent="VjDLeNoEt36ukDtSpz-p-1" vertex="1">
                    <mxGeometry x="457" y="-571" width="80" height="30" as="geometry"/>
                </mxCell>
                <mxCell id="VjDLeNoEt36ukDtSpz-p-51" value="username" style="ellipse;whiteSpace=wrap;html=1;" parent="VjDLeNoEt36ukDtSpz-p-1" vertex="1">
                    <mxGeometry x="647" y="-651" width="80" height="50" as="geometry"/>
                </mxCell>
                <mxCell id="VjDLeNoEt36ukDtSpz-p-52" value="email" style="ellipse;whiteSpace=wrap;html=1;" parent="VjDLeNoEt36ukDtSpz-p-1" vertex="1">
                    <mxGeometry x="647" y="-511" width="80" height="50" as="geometry"/>
                </mxCell>
                <mxCell id="VjDLeNoEt36ukDtSpz-p-53" value="password" style="ellipse;whiteSpace=wrap;html=1;" parent="VjDLeNoEt36ukDtSpz-p-1" vertex="1">
                    <mxGeometry x="642" y="-578.5" width="85" height="45" as="geometry"/>
                </mxCell>
                <mxCell id="VjDLeNoEt36ukDtSpz-p-57" style="edgeStyle=orthogonalEdgeStyle;rounded=0;orthogonalLoop=1;jettySize=auto;html=1;entryX=0;entryY=0.5;entryDx=0;entryDy=0;" parent="VjDLeNoEt36ukDtSpz-p-1" source="VjDLeNoEt36ukDtSpz-p-122" target="VjDLeNoEt36ukDtSpz-p-61" edge="1">
                    <mxGeometry relative="1" as="geometry"/>
                </mxCell>
                <mxCell id="VjDLeNoEt36ukDtSpz-p-58" style="edgeStyle=orthogonalEdgeStyle;rounded=0;orthogonalLoop=1;jettySize=auto;html=1;" parent="VjDLeNoEt36ukDtSpz-p-1" source="VjDLeNoEt36ukDtSpz-p-122" target="VjDLeNoEt36ukDtSpz-p-63" edge="1">
                    <mxGeometry relative="1" as="geometry"/>
                </mxCell>
                <mxCell id="VjDLeNoEt36ukDtSpz-p-68" style="edgeStyle=orthogonalEdgeStyle;rounded=0;orthogonalLoop=1;jettySize=auto;html=1;entryX=0;entryY=0.5;entryDx=0;entryDy=0;" parent="VjDLeNoEt36ukDtSpz-p-1" source="VjDLeNoEt36ukDtSpz-p-122" target="VjDLeNoEt36ukDtSpz-p-64" edge="1">
                    <mxGeometry relative="1" as="geometry"/>
                </mxCell>
                <mxCell id="VjDLeNoEt36ukDtSpz-p-69" style="edgeStyle=orthogonalEdgeStyle;rounded=0;orthogonalLoop=1;jettySize=auto;html=1;entryX=0;entryY=0.5;entryDx=0;entryDy=0;" parent="VjDLeNoEt36ukDtSpz-p-1" source="VjDLeNoEt36ukDtSpz-p-122" target="VjDLeNoEt36ukDtSpz-p-65" edge="1">
                    <mxGeometry relative="1" as="geometry"/>
                </mxCell>
                <mxCell id="VjDLeNoEt36ukDtSpz-p-71" style="edgeStyle=orthogonalEdgeStyle;rounded=0;orthogonalLoop=1;jettySize=auto;html=1;entryX=0;entryY=0.5;entryDx=0;entryDy=0;" parent="VjDLeNoEt36ukDtSpz-p-1" source="VjDLeNoEt36ukDtSpz-p-122" target="VjDLeNoEt36ukDtSpz-p-67" edge="1">
                    <mxGeometry relative="1" as="geometry"/>
                </mxCell>
                <mxCell id="VjDLeNoEt36ukDtSpz-p-61" value="user" style="ellipse;whiteSpace=wrap;html=1;" parent="VjDLeNoEt36ukDtSpz-p-1" vertex="1">
                    <mxGeometry x="220" y="-353" width="80" height="50" as="geometry"/>
                </mxCell>
                <mxCell id="VjDLeNoEt36ukDtSpz-p-63" value="school" style="ellipse;whiteSpace=wrap;html=1;" parent="VjDLeNoEt36ukDtSpz-p-1" vertex="1">
                    <mxGeometry x="220" y="-293" width="85" height="45" as="geometry"/>
                </mxCell>
                <mxCell id="VjDLeNoEt36ukDtSpz-p-64" value="first_name" style="ellipse;whiteSpace=wrap;html=1;" parent="VjDLeNoEt36ukDtSpz-p-1" vertex="1">
                    <mxGeometry x="220" y="-183" width="80" height="50" as="geometry"/>
                </mxCell>
                <mxCell id="VjDLeNoEt36ukDtSpz-p-65" value="last_name" style="ellipse;whiteSpace=wrap;html=1;" parent="VjDLeNoEt36ukDtSpz-p-1" vertex="1">
                    <mxGeometry x="220" y="-122.99999999999997" width="80" height="50" as="geometry"/>
                </mxCell>
                <mxCell id="VjDLeNoEt36ukDtSpz-p-67" value="create_date" style="ellipse;whiteSpace=wrap;html=1;" parent="VjDLeNoEt36ukDtSpz-p-1" vertex="1">
                    <mxGeometry x="220" y="-240" width="80" height="50" as="geometry"/>
                </mxCell>
                <mxCell id="VjDLeNoEt36ukDtSpz-p-79" style="edgeStyle=orthogonalEdgeStyle;rounded=0;orthogonalLoop=1;jettySize=auto;html=1;entryX=0;entryY=0.5;entryDx=0;entryDy=0;" parent="VjDLeNoEt36ukDtSpz-p-1" source="VjDLeNoEt36ukDtSpz-p-121" target="VjDLeNoEt36ukDtSpz-p-87" edge="1">
                    <mxGeometry relative="1" as="geometry"/>
                </mxCell>
                <mxCell id="VjDLeNoEt36ukDtSpz-p-80" style="edgeStyle=orthogonalEdgeStyle;rounded=0;orthogonalLoop=1;jettySize=auto;html=1;" parent="VjDLeNoEt36ukDtSpz-p-1" source="VjDLeNoEt36ukDtSpz-p-121" target="VjDLeNoEt36ukDtSpz-p-89" edge="1">
                    <mxGeometry relative="1" as="geometry"/>
                </mxCell>
                <mxCell id="VjDLeNoEt36ukDtSpz-p-81" style="edgeStyle=orthogonalEdgeStyle;rounded=0;orthogonalLoop=1;jettySize=auto;html=1;entryX=0;entryY=0.5;entryDx=0;entryDy=0;" parent="VjDLeNoEt36ukDtSpz-p-1" source="VjDLeNoEt36ukDtSpz-p-121" target="VjDLeNoEt36ukDtSpz-p-88" edge="1">
                    <mxGeometry relative="1" as="geometry"/>
                </mxCell>
                <mxCell id="VjDLeNoEt36ukDtSpz-p-82" style="edgeStyle=orthogonalEdgeStyle;rounded=0;orthogonalLoop=1;jettySize=auto;html=1;entryX=0;entryY=0.5;entryDx=0;entryDy=0;" parent="VjDLeNoEt36ukDtSpz-p-1" source="VjDLeNoEt36ukDtSpz-p-121" target="VjDLeNoEt36ukDtSpz-p-90" edge="1">
                    <mxGeometry relative="1" as="geometry"/>
                </mxCell>
                <mxCell id="VjDLeNoEt36ukDtSpz-p-85" style="edgeStyle=orthogonalEdgeStyle;rounded=0;orthogonalLoop=1;jettySize=auto;html=1;entryX=0;entryY=0.5;entryDx=0;entryDy=0;" parent="VjDLeNoEt36ukDtSpz-p-1" source="VjDLeNoEt36ukDtSpz-p-121" target="VjDLeNoEt36ukDtSpz-p-93" edge="1">
                    <mxGeometry relative="1" as="geometry"/>
                </mxCell>
                <mxCell id="VjDLeNoEt36ukDtSpz-p-87" value="user" style="ellipse;whiteSpace=wrap;html=1;" parent="VjDLeNoEt36ukDtSpz-p-1" vertex="1">
                    <mxGeometry x="640" y="-363" width="80" height="50" as="geometry"/>
                </mxCell>
                <mxCell id="VjDLeNoEt36ukDtSpz-p-88" value="city" style="ellipse;whiteSpace=wrap;html=1;" parent="VjDLeNoEt36ukDtSpz-p-1" vertex="1">
                    <mxGeometry x="640" y="-253" width="80" height="50" as="geometry"/>
                </mxCell>
                <mxCell id="VjDLeNoEt36ukDtSpz-p-89" value="title" style="ellipse;whiteSpace=wrap;html=1;" parent="VjDLeNoEt36ukDtSpz-p-1" vertex="1">
                    <mxGeometry x="640" y="-303" width="85" height="45" as="geometry"/>
                </mxCell>
                <mxCell id="VjDLeNoEt36ukDtSpz-p-90" value="address" style="ellipse;whiteSpace=wrap;html=1;" parent="VjDLeNoEt36ukDtSpz-p-1" vertex="1">
                    <mxGeometry x="640" y="-193" width="80" height="50" as="geometry"/>
                </mxCell>
                <mxCell id="VjDLeNoEt36ukDtSpz-p-93" value="create_date" style="ellipse;whiteSpace=wrap;html=1;" parent="VjDLeNoEt36ukDtSpz-p-1" vertex="1">
                    <mxGeometry x="640" y="-123" width="80" height="50" as="geometry"/>
                </mxCell>
                <mxCell id="VjDLeNoEt36ukDtSpz-p-94" style="edgeStyle=orthogonalEdgeStyle;rounded=0;orthogonalLoop=1;jettySize=auto;html=1;entryX=0;entryY=0.5;entryDx=0;entryDy=0;" parent="VjDLeNoEt36ukDtSpz-p-1" source="VjDLeNoEt36ukDtSpz-p-123" target="VjDLeNoEt36ukDtSpz-p-98" edge="1">
                    <mxGeometry relative="1" as="geometry"/>
                </mxCell>
                <mxCell id="VjDLeNoEt36ukDtSpz-p-95" style="edgeStyle=orthogonalEdgeStyle;rounded=0;orthogonalLoop=1;jettySize=auto;html=1;" parent="VjDLeNoEt36ukDtSpz-p-1" source="VjDLeNoEt36ukDtSpz-p-123" target="VjDLeNoEt36ukDtSpz-p-100" edge="1">
                    <mxGeometry relative="1" as="geometry"/>
                </mxCell>
                <mxCell id="VjDLeNoEt36ukDtSpz-p-96" style="edgeStyle=orthogonalEdgeStyle;rounded=0;orthogonalLoop=1;jettySize=auto;html=1;entryX=0;entryY=0.5;entryDx=0;entryDy=0;" parent="VjDLeNoEt36ukDtSpz-p-1" source="VjDLeNoEt36ukDtSpz-p-123" target="VjDLeNoEt36ukDtSpz-p-99" edge="1">
                    <mxGeometry relative="1" as="geometry"/>
                </mxCell>
                <mxCell id="VjDLeNoEt36ukDtSpz-p-98" value="school" style="ellipse;whiteSpace=wrap;html=1;" parent="VjDLeNoEt36ukDtSpz-p-1" vertex="1">
                    <mxGeometry x="645" y="28" width="80" height="50" as="geometry"/>
                </mxCell>
                <mxCell id="VjDLeNoEt36ukDtSpz-p-99" value="create_date" style="ellipse;whiteSpace=wrap;html=1;" parent="VjDLeNoEt36ukDtSpz-p-1" vertex="1">
                    <mxGeometry x="645" y="138" width="80" height="50" as="geometry"/>
                </mxCell>
                <mxCell id="VjDLeNoEt36ukDtSpz-p-100" value="title" style="ellipse;whiteSpace=wrap;html=1;" parent="VjDLeNoEt36ukDtSpz-p-1" vertex="1">
                    <mxGeometry x="645" y="88" width="85" height="45" as="geometry"/>
                </mxCell>
                <mxCell id="VjDLeNoEt36ukDtSpz-p-101" style="edgeStyle=orthogonalEdgeStyle;rounded=0;orthogonalLoop=1;jettySize=auto;html=1;" parent="VjDLeNoEt36ukDtSpz-p-1" source="VjDLeNoEt36ukDtSpz-p-124" target="VjDLeNoEt36ukDtSpz-p-103" edge="1">
                    <mxGeometry relative="1" as="geometry"/>
                </mxCell>
                <mxCell id="VjDLeNoEt36ukDtSpz-p-103" value="&lt;span style=&quot;text-align: left&quot;&gt;competition&lt;/span&gt;" style="ellipse;whiteSpace=wrap;html=1;" parent="VjDLeNoEt36ukDtSpz-p-1" vertex="1">
                    <mxGeometry x="393" y="238" width="85" height="45" as="geometry"/>
                </mxCell>
                <mxCell id="VjDLeNoEt36ukDtSpz-p-104" style="edgeStyle=orthogonalEdgeStyle;rounded=0;orthogonalLoop=1;jettySize=auto;html=1;entryX=0;entryY=0.5;entryDx=0;entryDy=0;" parent="VjDLeNoEt36ukDtSpz-p-1" source="VjDLeNoEt36ukDtSpz-p-125" target="VjDLeNoEt36ukDtSpz-p-108" edge="1">
                    <mxGeometry relative="1" as="geometry"/>
                </mxCell>
                <mxCell id="VjDLeNoEt36ukDtSpz-p-105" style="edgeStyle=orthogonalEdgeStyle;rounded=0;orthogonalLoop=1;jettySize=auto;html=1;" parent="VjDLeNoEt36ukDtSpz-p-1" source="VjDLeNoEt36ukDtSpz-p-125" target="VjDLeNoEt36ukDtSpz-p-110" edge="1">
                    <mxGeometry relative="1" as="geometry"/>
                </mxCell>
                <mxCell id="VjDLeNoEt36ukDtSpz-p-106" style="edgeStyle=orthogonalEdgeStyle;rounded=0;orthogonalLoop=1;jettySize=auto;html=1;entryX=0;entryY=0.5;entryDx=0;entryDy=0;" parent="VjDLeNoEt36ukDtSpz-p-1" source="VjDLeNoEt36ukDtSpz-p-125" target="VjDLeNoEt36ukDtSpz-p-109" edge="1">
                    <mxGeometry relative="1" as="geometry"/>
                </mxCell>
                <mxCell id="VjDLeNoEt36ukDtSpz-p-108" value="&lt;span style=&quot;text-align: left&quot;&gt;competition&lt;/span&gt;" style="ellipse;whiteSpace=wrap;html=1;" parent="VjDLeNoEt36ukDtSpz-p-1" vertex="1">
                    <mxGeometry x="340" y="358" width="80" height="50" as="geometry"/>
                </mxCell>
                <mxCell id="VjDLeNoEt36ukDtSpz-p-109" value="profile" style="ellipse;whiteSpace=wrap;html=1;" parent="VjDLeNoEt36ukDtSpz-p-1" vertex="1">
                    <mxGeometry x="340" y="468" width="80" height="50" as="geometry"/>
                </mxCell>
                <mxCell id="VjDLeNoEt36ukDtSpz-p-110" value="flow" style="ellipse;whiteSpace=wrap;html=1;" parent="VjDLeNoEt36ukDtSpz-p-1" vertex="1">
                    <mxGeometry x="340" y="418" width="85" height="45" as="geometry"/>
                </mxCell>
                <mxCell id="VjDLeNoEt36ukDtSpz-p-111" style="edgeStyle=orthogonalEdgeStyle;rounded=0;orthogonalLoop=1;jettySize=auto;html=1;entryX=0;entryY=0.5;entryDx=0;entryDy=0;" parent="VjDLeNoEt36ukDtSpz-p-1" source="VjDLeNoEt36ukDtSpz-p-126" target="VjDLeNoEt36ukDtSpz-p-116" edge="1">
                    <mxGeometry relative="1" as="geometry">
                        <mxPoint x="547" y="700.9999999999995" as="sourcePoint"/>
                    </mxGeometry>
                </mxCell>
                <mxCell id="VjDLeNoEt36ukDtSpz-p-112" style="edgeStyle=orthogonalEdgeStyle;rounded=0;orthogonalLoop=1;jettySize=auto;html=1;" parent="VjDLeNoEt36ukDtSpz-p-1" source="VjDLeNoEt36ukDtSpz-p-126" target="VjDLeNoEt36ukDtSpz-p-118" edge="1">
                    <mxGeometry relative="1" as="geometry">
                        <mxPoint x="547" y="700.9999999999995" as="sourcePoint"/>
                    </mxGeometry>
                </mxCell>
                <mxCell id="VjDLeNoEt36ukDtSpz-p-113" style="edgeStyle=orthogonalEdgeStyle;rounded=0;orthogonalLoop=1;jettySize=auto;html=1;entryX=0;entryY=0.5;entryDx=0;entryDy=0;" parent="VjDLeNoEt36ukDtSpz-p-1" source="VjDLeNoEt36ukDtSpz-p-126" target="VjDLeNoEt36ukDtSpz-p-117" edge="1">
                    <mxGeometry relative="1" as="geometry">
                        <mxPoint x="547" y="700.9999999999995" as="sourcePoint"/>
                    </mxGeometry>
                </mxCell>
                <mxCell id="VjDLeNoEt36ukDtSpz-p-114" style="edgeStyle=orthogonalEdgeStyle;rounded=0;orthogonalLoop=1;jettySize=auto;html=1;entryX=0;entryY=0.5;entryDx=0;entryDy=0;" parent="VjDLeNoEt36ukDtSpz-p-1" source="VjDLeNoEt36ukDtSpz-p-126" target="VjDLeNoEt36ukDtSpz-p-119" edge="1">
                    <mxGeometry relative="1" as="geometry">
                        <mxPoint x="547" y="700.9999999999995" as="sourcePoint"/>
                    </mxGeometry>
                </mxCell>
                <mxCell id="VjDLeNoEt36ukDtSpz-p-116" value="judge" style="ellipse;whiteSpace=wrap;html=1;" parent="VjDLeNoEt36ukDtSpz-p-1" vertex="1">
                    <mxGeometry x="657" y="606" width="80" height="50" as="geometry"/>
                </mxCell>
                <mxCell id="VjDLeNoEt36ukDtSpz-p-117" value="score" style="ellipse;whiteSpace=wrap;html=1;" parent="VjDLeNoEt36ukDtSpz-p-1" vertex="1">
                    <mxGeometry x="657" y="716" width="80" height="50" as="geometry"/>
                </mxCell>
                <mxCell id="VjDLeNoEt36ukDtSpz-p-118" value="participant" style="ellipse;whiteSpace=wrap;html=1;" parent="VjDLeNoEt36ukDtSpz-p-1" vertex="1">
                    <mxGeometry x="657" y="666" width="85" height="45" as="geometry"/>
                </mxCell>
                <mxCell id="VjDLeNoEt36ukDtSpz-p-119" value="create_date" style="ellipse;whiteSpace=wrap;html=1;" parent="VjDLeNoEt36ukDtSpz-p-1" vertex="1">
                    <mxGeometry x="657" y="776" width="80" height="50" as="geometry"/>
                </mxCell>
                <mxCell id="VjDLeNoEt36ukDtSpz-p-129" style="edgeStyle=orthogonalEdgeStyle;rounded=0;orthogonalLoop=1;jettySize=auto;html=1;endArrow=ERoneToMany;endFill=0;startArrow=none;startFill=0;" parent="VjDLeNoEt36ukDtSpz-p-1" source="VjDLeNoEt36ukDtSpz-p-144" target="VjDLeNoEt36ukDtSpz-p-123" edge="1">
                    <mxGeometry relative="1" as="geometry"/>
                </mxCell>
                <mxCell id="_Gq4VT02wDg7G9v6jnCs-10" style="edgeStyle=orthogonalEdgeStyle;rounded=0;orthogonalLoop=1;jettySize=auto;html=1;entryX=0;entryY=0.5;entryDx=0;entryDy=0;" parent="VjDLeNoEt36ukDtSpz-p-1" source="VjDLeNoEt36ukDtSpz-p-121" target="_Gq4VT02wDg7G9v6jnCs-7" edge="1">
                    <mxGeometry relative="1" as="geometry"/>
                </mxCell>
                <mxCell id="VjDLeNoEt36ukDtSpz-p-121" value="School" style="shape=ext;margin=3;double=1;whiteSpace=wrap;html=1;align=center;" parent="VjDLeNoEt36ukDtSpz-p-1" vertex="1">
                    <mxGeometry x="447" y="-273" width="100" height="40" as="geometry"/>
                </mxCell>
                <mxCell id="VjDLeNoEt36ukDtSpz-p-131" style="edgeStyle=orthogonalEdgeStyle;rounded=0;orthogonalLoop=1;jettySize=auto;html=1;endArrow=ERoneToMany;endFill=0;startArrow=none;" parent="VjDLeNoEt36ukDtSpz-p-1" source="VjDLeNoEt36ukDtSpz-p-143" target="VjDLeNoEt36ukDtSpz-p-125" edge="1">
                    <mxGeometry relative="1" as="geometry">
                        <Array as="points">
                            <mxPoint x="80" y="441"/>
                        </Array>
                    </mxGeometry>
                </mxCell>
                <mxCell id="_Gq4VT02wDg7G9v6jnCs-9" style="edgeStyle=orthogonalEdgeStyle;rounded=0;orthogonalLoop=1;jettySize=auto;html=1;entryX=0;entryY=0.5;entryDx=0;entryDy=0;" parent="VjDLeNoEt36ukDtSpz-p-1" source="VjDLeNoEt36ukDtSpz-p-122" target="_Gq4VT02wDg7G9v6jnCs-6" edge="1">
                    <mxGeometry relative="1" as="geometry"/>
                </mxCell>
                <mxCell id="VjDLeNoEt36ukDtSpz-p-122" value="Profile" style="shape=ext;margin=3;double=1;whiteSpace=wrap;html=1;align=center;" parent="VjDLeNoEt36ukDtSpz-p-1" vertex="1">
                    <mxGeometry x="30" y="-273" width="100" height="40" as="geometry"/>
                </mxCell>
                <mxCell id="VjDLeNoEt36ukDtSpz-p-130" style="edgeStyle=orthogonalEdgeStyle;rounded=0;orthogonalLoop=1;jettySize=auto;html=1;endArrow=ERoneToMany;endFill=0;startArrow=none;" parent="VjDLeNoEt36ukDtSpz-p-1" source="VjDLeNoEt36ukDtSpz-p-142" target="VjDLeNoEt36ukDtSpz-p-124" edge="1">
                    <mxGeometry relative="1" as="geometry"/>
                </mxCell>
                <mxCell id="VjDLeNoEt36ukDtSpz-p-132" style="edgeStyle=orthogonalEdgeStyle;rounded=0;orthogonalLoop=1;jettySize=auto;html=1;endArrow=ERoneToMany;endFill=0;startArrow=none;" parent="VjDLeNoEt36ukDtSpz-p-1" source="VjDLeNoEt36ukDtSpz-p-150" target="VjDLeNoEt36ukDtSpz-p-125" edge="1">
                    <mxGeometry relative="1" as="geometry"/>
                </mxCell>
                <mxCell id="VjDLeNoEt36ukDtSpz-p-135" style="edgeStyle=orthogonalEdgeStyle;rounded=0;orthogonalLoop=1;jettySize=auto;html=1;endArrow=ERoneToMany;endFill=0;startArrow=none;" parent="VjDLeNoEt36ukDtSpz-p-1" source="VjDLeNoEt36ukDtSpz-p-152" target="VjDLeNoEt36ukDtSpz-p-126" edge="1">
                    <mxGeometry relative="1" as="geometry"/>
                </mxCell>
                <mxCell id="_Gq4VT02wDg7G9v6jnCs-11" style="edgeStyle=orthogonalEdgeStyle;rounded=0;orthogonalLoop=1;jettySize=auto;html=1;entryX=0;entryY=0.5;entryDx=0;entryDy=0;" parent="VjDLeNoEt36ukDtSpz-p-1" source="VjDLeNoEt36ukDtSpz-p-123" target="_Gq4VT02wDg7G9v6jnCs-5" edge="1">
                    <mxGeometry relative="1" as="geometry"/>
                </mxCell>
                <mxCell id="VjDLeNoEt36ukDtSpz-p-123" value="Competition" style="shape=ext;margin=3;double=1;whiteSpace=wrap;html=1;align=center;" parent="VjDLeNoEt36ukDtSpz-p-1" vertex="1">
                    <mxGeometry x="447" y="90.5" width="100" height="40" as="geometry"/>
                </mxCell>
                <mxCell id="VjDLeNoEt36ukDtSpz-p-137" style="edgeStyle=orthogonalEdgeStyle;rounded=0;orthogonalLoop=1;jettySize=auto;html=1;entryX=0.75;entryY=0;entryDx=0;entryDy=0;endArrow=ERoneToMany;endFill=0;" parent="VjDLeNoEt36ukDtSpz-p-1" source="VjDLeNoEt36ukDtSpz-p-124" target="VjDLeNoEt36ukDtSpz-p-125" edge="1">
                    <mxGeometry relative="1" as="geometry"/>
                </mxCell>
                <mxCell id="_Gq4VT02wDg7G9v6jnCs-14" style="edgeStyle=orthogonalEdgeStyle;rounded=0;orthogonalLoop=1;jettySize=auto;html=1;entryX=0;entryY=0.5;entryDx=0;entryDy=0;" parent="VjDLeNoEt36ukDtSpz-p-1" source="VjDLeNoEt36ukDtSpz-p-124" target="_Gq4VT02wDg7G9v6jnCs-2" edge="1">
                    <mxGeometry relative="1" as="geometry"/>
                </mxCell>
                <mxCell id="VjDLeNoEt36ukDtSpz-p-124" value="Flow" style="shape=ext;margin=3;double=1;whiteSpace=wrap;html=1;align=center;" parent="VjDLeNoEt36ukDtSpz-p-1" vertex="1">
                    <mxGeometry x="220" y="240.5" width="100" height="40" as="geometry"/>
                </mxCell>
                <mxCell id="VjDLeNoEt36ukDtSpz-p-136" style="edgeStyle=orthogonalEdgeStyle;rounded=0;orthogonalLoop=1;jettySize=auto;html=1;endArrow=ERoneToMany;endFill=0;startArrow=none;" parent="VjDLeNoEt36ukDtSpz-p-1" source="VjDLeNoEt36ukDtSpz-p-154" target="VjDLeNoEt36ukDtSpz-p-126" edge="1">
                    <mxGeometry relative="1" as="geometry">
                        <Array as="points">
                            <mxPoint x="190" y="689"/>
                        </Array>
                    </mxGeometry>
                </mxCell>
                <mxCell id="_Gq4VT02wDg7G9v6jnCs-13" style="edgeStyle=orthogonalEdgeStyle;rounded=0;orthogonalLoop=1;jettySize=auto;html=1;entryX=0;entryY=0.5;entryDx=0;entryDy=0;" parent="VjDLeNoEt36ukDtSpz-p-1" source="VjDLeNoEt36ukDtSpz-p-125" target="_Gq4VT02wDg7G9v6jnCs-3" edge="1">
                    <mxGeometry relative="1" as="geometry"/>
                </mxCell>
                <mxCell id="VjDLeNoEt36ukDtSpz-p-125" value="Participant" style="shape=ext;margin=3;double=1;whiteSpace=wrap;html=1;align=center;" parent="VjDLeNoEt36ukDtSpz-p-1" vertex="1">
                    <mxGeometry x="140" y="420.5" width="100" height="40" as="geometry"/>
                </mxCell>
                <mxCell id="_Gq4VT02wDg7G9v6jnCs-12" style="edgeStyle=orthogonalEdgeStyle;rounded=0;orthogonalLoop=1;jettySize=auto;html=1;entryX=0;entryY=0.5;entryDx=0;entryDy=0;" parent="VjDLeNoEt36ukDtSpz-p-1" source="VjDLeNoEt36ukDtSpz-p-126" target="_Gq4VT02wDg7G9v6jnCs-4" edge="1">
                    <mxGeometry relative="1" as="geometry"/>
                </mxCell>
                <mxCell id="VjDLeNoEt36ukDtSpz-p-126" value="Score" style="shape=ext;margin=3;double=1;whiteSpace=wrap;html=1;align=center;" parent="VjDLeNoEt36ukDtSpz-p-1" vertex="1">
                    <mxGeometry x="447" y="668.5" width="100" height="40" as="geometry"/>
                </mxCell>
                <mxCell id="VjDLeNoEt36ukDtSpz-p-133" value="competition" style="ellipse;whiteSpace=wrap;html=1;" parent="VjDLeNoEt36ukDtSpz-p-1" vertex="1">
                    <mxGeometry x="657" y="536" width="80" height="50" as="geometry"/>
                </mxCell>
                <mxCell id="VjDLeNoEt36ukDtSpz-p-134" style="edgeStyle=orthogonalEdgeStyle;rounded=0;orthogonalLoop=1;jettySize=auto;html=1;entryX=0;entryY=0.5;entryDx=0;entryDy=0;" parent="VjDLeNoEt36ukDtSpz-p-1" source="VjDLeNoEt36ukDtSpz-p-126" target="VjDLeNoEt36ukDtSpz-p-133" edge="1">
                    <mxGeometry relative="1" as="geometry">
                        <mxPoint x="557" y="698.4827586206898" as="sourcePoint"/>
                        <mxPoint x="667" y="641" as="targetPoint"/>
                    </mxGeometry>
                </mxCell>
                <mxCell id="VjDLeNoEt36ukDtSpz-p-140" value="" style="rhombus;whiteSpace=wrap;html=1;" parent="VjDLeNoEt36ukDtSpz-p-1" vertex="1">
                    <mxGeometry x="60" y="-453" width="40" height="40" as="geometry"/>
                </mxCell>
                <mxCell id="VjDLeNoEt36ukDtSpz-p-141" value="" style="edgeStyle=orthogonalEdgeStyle;rounded=0;orthogonalLoop=1;jettySize=auto;html=1;endArrow=none;endFill=0;startArrow=ERmandOne;startFill=0;" parent="VjDLeNoEt36ukDtSpz-p-1" source="VjDLeNoEt36ukDtSpz-p-50" target="VjDLeNoEt36ukDtSpz-p-140" edge="1">
                    <mxGeometry relative="1" as="geometry">
                        <mxPoint x="456.99999999999955" y="-556" as="sourcePoint"/>
                        <mxPoint x="80" y="-300.0000000000002" as="targetPoint"/>
                    </mxGeometry>
                </mxCell>
                <mxCell id="VjDLeNoEt36ukDtSpz-p-145" value="" style="rhombus;whiteSpace=wrap;html=1;" parent="VjDLeNoEt36ukDtSpz-p-1" vertex="1">
                    <mxGeometry x="477" y="-423" width="40" height="40" as="geometry"/>
                </mxCell>
                <mxCell id="VjDLeNoEt36ukDtSpz-p-146" value="" style="edgeStyle=orthogonalEdgeStyle;rounded=0;orthogonalLoop=1;jettySize=auto;html=1;endArrow=none;endFill=0;startArrow=ERmandOne;startFill=0;" parent="VjDLeNoEt36ukDtSpz-p-1" source="VjDLeNoEt36ukDtSpz-p-50" target="VjDLeNoEt36ukDtSpz-p-145" edge="1">
                    <mxGeometry relative="1" as="geometry">
                        <mxPoint x="496.99999999999955" y="-541" as="sourcePoint"/>
                        <mxPoint x="496.99999999999955" y="-300.0000000000002" as="targetPoint"/>
                    </mxGeometry>
                </mxCell>
                <mxCell id="VjDLeNoEt36ukDtSpz-p-144" value="" style="rhombus;whiteSpace=wrap;html=1;" parent="VjDLeNoEt36ukDtSpz-p-1" vertex="1">
                    <mxGeometry x="477" y="-103" width="40" height="40" as="geometry"/>
                </mxCell>
                <mxCell id="VjDLeNoEt36ukDtSpz-p-147" value="" style="edgeStyle=orthogonalEdgeStyle;rounded=0;orthogonalLoop=1;jettySize=auto;html=1;endArrow=none;endFill=0;startArrow=none;startFill=0;" parent="VjDLeNoEt36ukDtSpz-p-1" source="VjDLeNoEt36ukDtSpz-p-121" target="VjDLeNoEt36ukDtSpz-p-144" edge="1">
                    <mxGeometry relative="1" as="geometry">
                        <mxPoint x="496.99999999999955" y="-233.00000000000023" as="sourcePoint"/>
                        <mxPoint x="496.99999999999955" y="79.49999999999977" as="targetPoint"/>
                    </mxGeometry>
                </mxCell>
                <mxCell id="VjDLeNoEt36ukDtSpz-p-143" value="" style="rhombus;whiteSpace=wrap;html=1;" parent="VjDLeNoEt36ukDtSpz-p-1" vertex="1">
                    <mxGeometry x="60" y="68" width="40" height="40" as="geometry"/>
                </mxCell>
                <mxCell id="VjDLeNoEt36ukDtSpz-p-148" value="" style="edgeStyle=orthogonalEdgeStyle;rounded=0;orthogonalLoop=1;jettySize=auto;html=1;endArrow=none;endFill=0;" parent="VjDLeNoEt36ukDtSpz-p-1" source="VjDLeNoEt36ukDtSpz-p-122" target="VjDLeNoEt36ukDtSpz-p-143" edge="1">
                    <mxGeometry relative="1" as="geometry">
                        <mxPoint x="80" y="-233.00000000000023" as="sourcePoint"/>
                        <mxPoint x="140" y="430.03448275862047" as="targetPoint"/>
                        <Array as="points"/>
                    </mxGeometry>
                </mxCell>
                <mxCell id="VjDLeNoEt36ukDtSpz-p-142" value="" style="rhombus;whiteSpace=wrap;html=1;" parent="VjDLeNoEt36ukDtSpz-p-1" vertex="1">
                    <mxGeometry x="250" y="148" width="40" height="40" as="geometry"/>
                </mxCell>
                <mxCell id="VjDLeNoEt36ukDtSpz-p-149" value="" style="edgeStyle=orthogonalEdgeStyle;rounded=0;orthogonalLoop=1;jettySize=auto;html=1;endArrow=none;endFill=0;" parent="VjDLeNoEt36ukDtSpz-p-1" source="VjDLeNoEt36ukDtSpz-p-123" target="VjDLeNoEt36ukDtSpz-p-142" edge="1">
                    <mxGeometry relative="1" as="geometry">
                        <mxPoint x="446.99999999999955" y="110.48275862068976" as="sourcePoint"/>
                        <mxPoint x="270" y="240.5" as="targetPoint"/>
                    </mxGeometry>
                </mxCell>
                <mxCell id="VjDLeNoEt36ukDtSpz-p-150" value="" style="rhombus;whiteSpace=wrap;html=1;" parent="VjDLeNoEt36ukDtSpz-p-1" vertex="1">
                    <mxGeometry x="170" y="148" width="40" height="40" as="geometry"/>
                </mxCell>
                <mxCell id="VjDLeNoEt36ukDtSpz-p-151" value="" style="edgeStyle=orthogonalEdgeStyle;rounded=0;orthogonalLoop=1;jettySize=auto;html=1;endArrow=none;endFill=0;" parent="VjDLeNoEt36ukDtSpz-p-1" source="VjDLeNoEt36ukDtSpz-p-123" target="VjDLeNoEt36ukDtSpz-p-150" edge="1">
                    <mxGeometry relative="1" as="geometry">
                        <mxPoint x="446.99999999999955" y="110.48275862068976" as="sourcePoint"/>
                        <mxPoint x="190" y="420.5" as="targetPoint"/>
                    </mxGeometry>
                </mxCell>
                <mxCell id="VjDLeNoEt36ukDtSpz-p-152" value="" style="rhombus;whiteSpace=wrap;html=1;" parent="VjDLeNoEt36ukDtSpz-p-1" vertex="1">
                    <mxGeometry x="477" y="378" width="40" height="40" as="geometry"/>
                </mxCell>
                <mxCell id="VjDLeNoEt36ukDtSpz-p-153" value="" style="edgeStyle=orthogonalEdgeStyle;rounded=0;orthogonalLoop=1;jettySize=auto;html=1;endArrow=none;endFill=0;" parent="VjDLeNoEt36ukDtSpz-p-1" source="VjDLeNoEt36ukDtSpz-p-123" target="VjDLeNoEt36ukDtSpz-p-152" edge="1">
                    <mxGeometry relative="1" as="geometry">
                        <mxPoint x="496.99999999999955" y="130.5" as="sourcePoint"/>
                        <mxPoint x="496.99999999999955" y="668.5" as="targetPoint"/>
                    </mxGeometry>
                </mxCell>
                <mxCell id="VjDLeNoEt36ukDtSpz-p-154" value="" style="rhombus;whiteSpace=wrap;html=1;" parent="VjDLeNoEt36ukDtSpz-p-1" vertex="1">
                    <mxGeometry x="170" y="566" width="40" height="40" as="geometry"/>
                </mxCell>
                <mxCell id="VjDLeNoEt36ukDtSpz-p-155" value="" style="edgeStyle=orthogonalEdgeStyle;rounded=0;orthogonalLoop=1;jettySize=auto;html=1;endArrow=none;endFill=0;" parent="VjDLeNoEt36ukDtSpz-p-1" source="VjDLeNoEt36ukDtSpz-p-125" target="VjDLeNoEt36ukDtSpz-p-154" edge="1">
                    <mxGeometry relative="1" as="geometry">
                        <mxPoint x="190" y="460.5" as="sourcePoint"/>
                        <mxPoint x="446.99999999999955" y="689.0344827586209" as="targetPoint"/>
                        <Array as="points"/>
                    </mxGeometry>
                </mxCell>
                <mxCell id="_Gq4VT02wDg7G9v6jnCs-1" value="id" style="ellipse;whiteSpace=wrap;html=1;" parent="VjDLeNoEt36ukDtSpz-p-1" vertex="1">
                    <mxGeometry x="647.5" y="-710" width="80" height="50" as="geometry"/>
                </mxCell>
                <mxCell id="_Gq4VT02wDg7G9v6jnCs-2" value="id" style="ellipse;whiteSpace=wrap;html=1;" parent="VjDLeNoEt36ukDtSpz-p-1" vertex="1">
                    <mxGeometry x="398" y="178" width="80" height="50" as="geometry"/>
                </mxCell>
                <mxCell id="_Gq4VT02wDg7G9v6jnCs-3" value="id" style="ellipse;whiteSpace=wrap;html=1;" parent="VjDLeNoEt36ukDtSpz-p-1" vertex="1">
                    <mxGeometry x="340" y="298" width="80" height="50" as="geometry"/>
                </mxCell>
                <mxCell id="_Gq4VT02wDg7G9v6jnCs-4" value="id" style="ellipse;whiteSpace=wrap;html=1;" parent="VjDLeNoEt36ukDtSpz-p-1" vertex="1">
                    <mxGeometry x="657" y="478" width="80" height="50" as="geometry"/>
                </mxCell>
                <mxCell id="_Gq4VT02wDg7G9v6jnCs-5" value="id" style="ellipse;whiteSpace=wrap;html=1;" parent="VjDLeNoEt36ukDtSpz-p-1" vertex="1">
                    <mxGeometry x="645" y="-32" width="80" height="50" as="geometry"/>
                </mxCell>
                <mxCell id="_Gq4VT02wDg7G9v6jnCs-6" value="id" style="ellipse;whiteSpace=wrap;html=1;" parent="VjDLeNoEt36ukDtSpz-p-1" vertex="1">
                    <mxGeometry x="220" y="-413" width="80" height="50" as="geometry"/>
                </mxCell>
                <mxCell id="_Gq4VT02wDg7G9v6jnCs-7" value="id" style="ellipse;whiteSpace=wrap;html=1;" parent="VjDLeNoEt36ukDtSpz-p-1" vertex="1">
                    <mxGeometry x="640" y="-423" width="80" height="50" as="geometry"/>
                </mxCell>
            </root>
        </mxGraphModel>
    </diagram>
</mxfile>